<svg width="24" height="24" viewBox="0 0 24 24" fill="none" xmlns="http://www.w3.org/2000/svg">
<path d="M10.8602 11.5608C12.4484 11.5608 13.8237 10.9912 14.9474 9.86729C16.0711 8.74358 16.6408 7.36866 16.6408 5.78023C16.6408 4.19235 16.0711 2.81724 14.9473 1.69316C13.8234 0.569637 12.4482 0 10.8602 0C9.27176 0 7.89683 0.569637 6.77312 1.69335C5.64941 2.81706 5.07959 4.19217 5.07959 5.78023C5.07959 7.36866 5.64941 8.74377 6.7733 9.86748C7.8972 10.991 9.27231 11.5608 10.8602 11.5608Z" fill="#969696"/>
<path d="M20.9746 18.4546C20.9422 17.987 20.8767 17.4768 20.7802 16.9381C20.6828 16.3954 20.5573 15.8824 20.4072 15.4134C20.2521 14.9287 20.0412 14.4501 19.7804 13.9914C19.5098 13.5154 19.1919 13.1008 18.8353 12.7597C18.4623 12.4028 18.0056 12.1159 17.4775 11.9066C16.9513 11.6984 16.3681 11.593 15.7443 11.593C15.4993 11.593 15.2623 11.6935 14.8048 11.9914C14.5232 12.175 14.1937 12.3874 13.8261 12.6224C13.5117 12.8227 13.0858 13.0104 12.5597 13.1803C12.0465 13.3464 11.5254 13.4306 11.011 13.4306C10.4967 13.4306 9.97576 13.3464 9.46197 13.1803C8.93646 13.0105 8.51056 12.8229 8.19654 12.6226C7.83235 12.3898 7.50276 12.1774 7.21693 11.9912C6.7599 11.6933 6.52279 11.5928 6.27779 11.5928C5.65377 11.5928 5.07077 11.6984 4.54471 11.9068C4.01701 12.1157 3.56016 12.4026 3.18681 12.7599C2.83031 13.1012 2.51226 13.5155 2.24199 13.9914C1.98144 14.4501 1.7705 14.9286 1.61523 15.4136C1.46527 15.8825 1.33984 16.3954 1.24243 16.9381C1.14593 17.4761 1.08038 17.9864 1.04797 18.4551C1.01611 18.9144 1 19.391 1 19.8724C1 21.1252 1.39825 22.1394 2.18358 22.8874C2.95921 23.6255 3.98551 23.9999 5.23355 23.9999H16.7896C18.0377 23.9999 19.0636 23.6256 19.8394 22.8874C20.6249 22.1399 21.0232 21.1255 21.0232 19.8722C21.023 19.3886 21.0067 18.9116 20.9746 18.4546Z" fill="#969696"/>
</svg>
